<?xml version="1.0" encoding="UTF-8" standalone="no"?>
<svg
   xmlns:dc="http://purl.org/dc/elements/1.1/"
   xmlns:cc="http://creativecommons.org/ns#"
   xmlns:rdf="http://www.w3.org/1999/02/22-rdf-syntax-ns#"
   xmlns:svg="http://www.w3.org/2000/svg"
   xmlns="http://www.w3.org/2000/svg"
   xmlns:sodipodi="http://sodipodi.sourceforge.net/DTD/sodipodi-0.dtd"
   xmlns:inkscape="http://www.inkscape.org/namespaces/inkscape"
   width="1400mm"
   height="200mm"
   viewBox="0 0 1400 200"
   version="1.1"
   id="svg843"
   inkscape:version="1.0.2-2 (e86c870879, 2021-01-15)"
   sodipodi:docname="how-it-works.svg">
  <defs
     id="defs837">
    <inkscape:path-effect
       effect="skeletal"
       id="path-effect1794"
       is_visible="true"
       lpeversion="1"
       pattern="M 0,5 C 0,2.24 2.24,0 5,0 7.76,0 10,2.24 10,5 10,7.76 7.76,10 5,10 2.24,10 0,7.76 0,5 Z"
       copytype="single_stretched"
       prop_scale="1"
       scale_y_rel="false"
       spacing="0"
       normal_offset="0"
       tang_offset="0"
       prop_units="false"
       vertical_pattern="false"
       hide_knot="false"
       fuse_tolerance="0" />
    <pattern
       id="EMFhbasepattern"
       patternUnits="userSpaceOnUse"
       width="6"
       height="6"
       x="0"
       y="0" />
  </defs>
  <sodipodi:namedview
     id="base"
     pagecolor="#ffffff"
     bordercolor="#666666"
     borderopacity="1.0"
     inkscape:pageopacity="0.0"
     inkscape:pageshadow="2"
     inkscape:zoom="0.12374369"
     inkscape:cx="3572.8523"
     inkscape:cy="936.72989"
     inkscape:document-units="mm"
     inkscape:current-layer="layer1"
     inkscape:document-rotation="0"
     showgrid="false"
     inkscape:window-width="2400"
     inkscape:window-height="1271"
     inkscape:window-x="2391"
     inkscape:window-y="-9"
     inkscape:window-maximized="1" />
  <metadata
     id="metadata840">
    <rdf:RDF>
      <cc:Work
         rdf:about="">
        <dc:format>image/svg+xml</dc:format>
        <dc:type
           rdf:resource="http://purl.org/dc/dcmitype/StillImage" />
        <dc:title></dc:title>
      </cc:Work>
    </rdf:RDF>
  </metadata>
  <g
     inkscape:label="Layer 1"
     inkscape:groupmode="layer"
     id="layer1">
    <g
       id="g1624"
       transform="matrix(1.5657685,0,0,1.5657685,-425.30062,-336.57403)">
      <g
         id="g1777"
         transform="translate(37.552995,18.776497)">
        <g
           class="cls-2"
           id="g12"
           style="opacity:0.15;fill:#b3b3b3"
           transform="matrix(0.26458333,0,0,0.26458333,221.87127,220.1314)">
          <rect
             class="cls-3"
             height="173"
             rx="29.09"
             ry="29.09"
             width="263"
             x="75.610001"
             y="128.73"
             id="rect10"
             style="fill:#b3b3b3" />
        </g>
        <path
           class="cls-8"
           d="m 264.99835,232.8314 a 14.022916,14.022916 0 0 1 9.13871,6.58283 0.22551752,0.22551752 0 0 0 0.38629,-0.23283 14.448896,14.448896 0 0 0 -9.40329,-6.78656 c -0.26458,-0.0609 -0.39423,0.36512 -0.11642,0.42333 z"
           id="path24"
           style="opacity:0.2;fill:#b3b3b3;stroke-width:0.264583" />
        <path
           class="cls-8"
           d="m 276.16377,246.35425 a 13.943541,13.943541 0 0 1 -13.79538,13.79538 0.219605,0.219605 0 0 0 0,0.43921 14.393333,14.393333 0 0 0 14.23723,-14.23723 0.21960416,0.21960416 0 0 0 -0.4392,0 z"
           id="path26"
           style="opacity:0.2;fill:#3f5a7c;stroke-width:0.264583" />
        <path
           class="cls-9"
           d="m 248.96725,244.15027 a 13.758333,13.758333 0 0 1 13.40114,-11.37708 c 0.56621,0 0.56886,-0.88635 0,-0.88106 a 14.620875,14.620875 0 0 0 -14.25045,12.02531 c -0.0979,0.55298 0.75141,0.79375 0.84931,0.23283 z"
           id="path28"
           style="fill:#b3b3b3;fill-opacity:1;stroke-width:0.264583" />
        <path
           class="cls-9"
           d="m 248.79262,246.35425 q 0,-0.36248 0.0185,-0.72231 a 0.44449999,0.44449999 0 0 0 -0.4392,-0.43921 0.44979166,0.44979166 0 0 0 -0.43921,0.43921 q -0.0185,0.35983 -0.0185,0.72231 a 0.44053124,0.44053124 0 1 0 0.88106,0 z"
           id="path30"
           style="fill:#b3b3b3;fill-opacity:1;stroke-width:0.264583" />
        <path
           class="cls-9"
           d="m 275.38589,257.17307 c -4.60904,5.53508 -12.28989,7.67291 -19.05,5.1382 a 16.933333,16.933333 0 0 1 -7.27339,-26.37895 c 0.34925,-0.43921 -0.26458,-1.05834 -0.62177,-0.62177 -4.71488,5.95841 -5.24934,14.42508 -1.08744,20.828 a 17.795875,17.795875 0 0 0 28.67025,1.65893 c 0.35983,-0.43391 -0.26458,-1.05833 -0.62177,-0.62177 z"
           id="path32"
           style="fill:#b3b3b3;fill-opacity:1;stroke-width:0.264583" />
        <path
           class="cls-9"
           d="m 277.08187,254.65952 q -0.34131,0.61119 -0.7276,1.19328 c -0.31485,0.4736 0.44715,0.91545 0.75935,0.4445 q 0.3863,-0.58473 0.72761,-1.19328 c 0.26458,-0.49477 -0.48419,-0.93927 -0.75936,-0.4445 z"
           id="path34"
           style="fill:#2e576d;stroke-width:0.264583" />
        <path
           class="cls-9"
           d="m 254.18483,231.60902 a 16.917458,16.917458 0 0 1 24.50042,18.99973 c -0.13494,0.55034 0.71437,0.79375 0.84931,0.23284 a 17.803812,17.803812 0 0 0 -25.79423,-19.99457 c -0.50006,0.26459 -0.0556,1.02923 0.4445,0.75936 z"
           id="path36"
           style="fill:#b3b3b3;fill-opacity:1;stroke-width:0.264583" />
        <path
           class="cls-10"
           d="m 266.77106,246.41775 a 3.33375,3.33375 0 0 0 -1.143,-0.50006 3.1220833,3.1220833 0 0 0 0.79375,-0.6641 2.54,2.54 0 0 0 0.36777,-1.1139 c 0.0185,-0.26458 0.0635,-1.38642 -0.79375,-2.032 -0.66939,-0.50006 -1.43669,-0.69585 -2.46591,-0.762 v -2.25954 h -1.38113 v 2.23308 h -1.05833 v -2.23308 h -1.38377 v 2.23308 h -2.71463 v 1.44727 h 0.79375 c 0.21696,0 0.6059,0.0238 0.76994,0.20902 0.16404,0.18521 0.19314,0.28311 0.19314,0.64559 0,0.36248 0,5.63033 0,5.76791 a 0.56620833,0.56620833 0 0 1 -0.14287,0.41805 c -0.11642,0.11112 -0.23283,0.13758 -0.51065,0.13758 h -0.8255 l -0.27781,1.67217 h 2.71463 v 2.22779 h 1.38112 v -2.22779 h 1.05833 v 2.22779 h 1.38113 v -2.26484 c 0.35719,-0.0212 0.69056,-0.0476 0.88371,-0.0741 a 4.5693541,4.5693541 0 0 0 2.11666,-0.74348 c 0.83344,-0.58737 1.0213,-1.50548 1.03982,-2.42887 0.0185,-0.9234 -0.32544,-1.5584 -0.7964,-1.91559 z m -5.67796,-3.53218 c 0,0 0.43921,-0.0397 0.87313,-0.0317 a 4.3629791,4.3629791 0 0 1 1.38112,0.19579 1.2012083,1.2012083 0 0 1 0.91811,1.11389 1.0927292,1.0927292 0 0 1 -0.59532,1.05834 3.3443333,3.3443333 0 0 1 -1.4261,0.35189 c -0.50271,0.0185 -1.14829,0 -1.14829,0 z m 3.09298,6.6622 a 4.3576874,4.3576874 0 0 1 -1.56369,0.37836 c -0.61383,0.045 -1.52929,0.0265 -1.52929,0.0265 v -2.98979 c 0,0 0.87842,-0.045 1.56369,0 a 4.3947291,4.3947291 0 0 1 1.51871,0.35189 1.23825,1.23825 0 0 1 0,2.23308 z"
           data-name="BTC alt"
           id="BTC_alt"
           style="fill:#b3b3b3;fill-opacity:1;stroke-width:0.264583" />
        <path
           class="cls-11"
           d="m 266.45092,234.76021 a 7.8872291,7.8872291 0 0 1 2.86808,1.51077 c 0.21696,0.17992 0.52917,-0.12964 0.31221,-0.31221 a 8.4402082,8.4402082 0 0 0 -3.06388,-1.63247 0.21960416,0.21960416 0 0 0 -0.11641,0.42333 z"
           id="path39"
           style="fill:#ffffff;stroke-width:0.264583" />
        <path
           class="cls-8"
           d="m 278.46035,224.28271 a 14.022916,14.022916 0 0 1 9.13871,6.58284 0.22054255,0.22054255 0 0 0 0.381,-0.22225 14.448896,14.448896 0 0 0 -9.40329,-6.78657 c -0.26458,-0.0608 -0.39423,0.36513 -0.11642,0.42334 z"
           id="path51"
           style="opacity:0.2;fill:#b3b3b3;stroke-width:0.264583" />
        <path
           class="cls-8"
           d="m 289.62048,237.81615 a 13.943541,13.943541 0 0 1 -13.79802,13.80067 0.21960416,0.21960416 0 0 0 0,0.4392 14.393333,14.393333 0 0 0 14.23723,-14.23722 0.219605,0.219605 0 0 0 -0.43921,0 z"
           id="path53"
           style="opacity:0.2;fill:#b3b3b3;stroke-width:0.264583" />
        <path
           class="cls-9"
           d="m 262.42396,235.61217 a 13.758333,13.758333 0 0 1 13.40114,-11.37708 c 0.56621,0 0.56886,-0.88636 0,-0.88107 a 14.620875,14.620875 0 0 0 -14.25046,12.02003 c -0.0979,0.55297 0.75142,0.79375 0.84932,0.23283 z"
           id="path55"
           style="fill:#b3b3b3;fill-opacity:1;stroke-width:0.264583" />
        <path
           class="cls-9"
           d="m 262.34555,237.81615 q 0,-0.36248 0.0185,-0.72231 a 0.44449999,0.44449999 0 0 0 -0.44185,-0.43921 0.44979166,0.44979166 0 0 0 -0.43921,0.43921 q -0.0185,0.35983 -0.0185,0.72231 a 0.44053124,0.44053124 0 1 0 0.88106,0 z"
           id="path57"
           style="fill:#b3b3b3;fill-opacity:1;stroke-width:0.264583" />
        <path
           class="cls-9"
           d="m 288.8426,248.62702 c -4.60904,5.53509 -12.28989,7.67292 -19.05,5.13821 a 16.933333,16.933333 0 0 1 -7.27339,-26.37896 c 0.34925,-0.4392 -0.26459,-1.05833 -0.62177,-0.62177 -4.71488,5.95842 -5.24934,14.42509 -1.08744,20.828 a 17.795875,17.795875 0 0 0 28.67025,1.65894 c 0.35983,-0.43392 -0.26459,-1.05833 -0.62177,-0.62177 z"
           id="path59"
           style="fill:#b3b3b3;fill-opacity:1;stroke-width:0.264583" />
        <path
           class="cls-9"
           d="m 290.53858,246.12142 q -0.34131,0.61119 -0.7276,1.19327 c -0.31486,0.47361 0.44714,0.91546 0.75935,0.4445 q 0.38629,-0.58473 0.72761,-1.19327 c 0.26458,-0.49477 -0.48419,-0.93927 -0.75936,-0.4445 z"
           id="path61"
           style="fill:#2e576d;stroke-width:0.264583" />
        <path
           class="cls-9"
           d="m 267.64419,223.07092 a 16.917458,16.917458 0 0 1 24.50041,18.99973 c -0.13494,0.55033 0.71438,0.79375 0.84931,0.23283 a 17.803812,17.803812 0 0 0 -25.79687,-19.99191 c -0.50006,0.26458 -0.0556,1.02923 0.4445,0.75935 z"
           id="path63"
           style="fill:#b3b3b3;fill-opacity:1;stroke-width:0.264583" />
        <path
           class="cls-10"
           d="m 280.22512,237.87965 a 3.33375,3.33375 0 0 0 -1.143,-0.50006 3.1220833,3.1220833 0 0 0 0.79375,-0.66411 2.54,2.54 0 0 0 0.36777,-1.11389 c 0.0185,-0.26459 0.0635,-1.38642 -0.79375,-2.032 -0.66939,-0.50007 -1.43668,-0.69586 -2.46591,-0.762 v -2.25954 h -1.38113 v 2.23308 h -1.05833 v -2.23308 h -1.38113 v 2.23308 h -2.71462 v 1.44727 h 0.79375 c 0.21696,0 0.6059,0.0238 0.76994,0.20902 0.16404,0.18521 0.19314,0.2831 0.19314,0.64558 0,0.36248 0,5.63034 0,5.76792 a 0.56620833,0.56620833 0 0 1 -0.14287,0.41804 c -0.11642,0.11113 -0.23284,0.13759 -0.51065,0.13759 h -0.8255 l -0.2831,1.67481 h 2.71991 v 2.22779 h 1.38113 v -2.23044 h 1.05833 v 2.22779 h 1.38113 v -2.26483 c 0.35719,-0.0212 0.69056,-0.0476 0.88371,-0.0741 a 4.5693541,4.5693541 0 0 0 2.11666,-0.74348 c 0.83344,-0.58738 1.02129,-1.50548 1.03982,-2.42888 0.0185,-0.92339 -0.32809,-1.55575 -0.79905,-1.91558 z m -5.67531,-3.5216 c 0,0 0.43921,-0.0397 0.87313,-0.0317 a 4.3629791,4.3629791 0 0 1 1.38112,0.19579 1.2012083,1.2012083 0 0 1 0.91811,1.11389 1.0927292,1.0927292 0 0 1 -0.59532,1.05834 3.3443333,3.3443333 0 0 1 -1.4261,0.35189 c -0.50271,0.0185 -1.14829,0 -1.14829,0 z m 3.09298,6.6622 a 4.3576874,4.3576874 0 0 1 -1.56369,0.37836 c -0.61383,0.045 -1.52929,0.0265 -1.52929,0.0265 v -2.99244 c 0,0 0.87842,-0.045 1.56369,0 a 4.3947291,4.3947291 0 0 1 1.51871,0.35189 1.23825,1.23825 0 0 1 0,2.23309 z"
           data-name="BTC alt"
           id="BTC_alt-2"
           style="fill:#b3b3b3;fill-opacity:1;stroke-width:0.264583" />
        <path
           class="cls-11"
           d="m 279.90498,226.21682 a 7.8872291,7.8872291 0 0 1 2.86808,1.52135 c 0.21696,0.17992 0.52917,-0.12965 0.31221,-0.31221 a 8.4402082,8.4402082 0 0 0 -3.06388,-1.63248 0.21960416,0.21960416 0 0 0 -0.11641,0.42334 z"
           id="path66"
           style="fill:#ffffff;stroke-width:0.264583" />
        <path
           class="cls-8"
           d="m 298.29881,236.53557 a 14.022916,14.022916 0 0 1 9.13871,6.58283 0.22054255,0.22054255 0 0 0 0.381,-0.22225 14.448896,14.448896 0 0 0 -9.40065,-6.78392 c -0.26458,-0.0609 -0.39423,0.36513 -0.11641,0.42334 z"
           id="path78"
           style="opacity:0.2;fill:#b3b3b3;stroke-width:0.264583" />
        <path
           class="cls-8"
           d="m 309.44835,250.07165 a 13.943541,13.943541 0 0 1 -13.78479,13.79537 0.219605,0.219605 0 0 0 0,0.43921 14.393333,14.393333 0 0 0 14.23723,-14.23723 0.219605,0.219605 0 0 0 -0.43921,0 z"
           id="path80"
           style="opacity:0.2;fill:#3f5a7c;stroke-width:0.264583" />
        <path
           class="cls-9"
           d="m 282.26242,247.86767 a 13.758333,13.758333 0 0 1 13.40114,-11.37708 c 0.56621,0 0.56885,-0.88636 0,-0.88107 a 14.620875,14.620875 0 0 0 -14.26104,12.02532 c -0.0979,0.55298 0.75142,0.79375 0.84931,0.23283 z"
           id="path82"
           style="fill:#b3b3b3;fill-opacity:1;stroke-width:0.264583" />
        <path
           class="cls-9"
           d="m 282.08779,250.07165 q 0,-0.36248 0.0185,-0.72231 a 0.44449999,0.44449999 0 0 0 -0.43921,-0.43921 0.44979166,0.44979166 0 0 0 -0.43921,0.43921 q -0.0185,0.35983 -0.0185,0.72231 a 0.440535,0.440535 0 0 0 0.88107,0 z"
           id="path84"
           style="fill:#2e576d;stroke-width:0.264583" />
        <path
           class="cls-9"
           d="m 308.68106,260.87723 c -4.60904,5.53509 -12.2899,7.67292 -19.05,5.13821 a 16.933333,16.933333 0 0 1 -7.27339,-26.37896 c 0.34925,-0.43921 -0.26459,-1.05833 -0.62178,-0.62177 -4.71487,5.95842 -5.24933,14.42509 -1.08743,20.828 a 17.795875,17.795875 0 0 0 28.67025,1.65894 c 0.35983,-0.43392 -0.26459,-1.05833 -0.62177,-0.62177 z"
           id="path86"
           style="fill:#b3b3b3;fill-opacity:1;stroke-width:0.264583" />
        <path
           class="cls-9"
           d="m 310.37969,258.37692 q -0.34132,0.61119 -0.72761,1.19327 c -0.31485,0.47361 0.44715,0.91546 0.75936,0.4445 q 0.38629,-0.58473 0.7276,-1.19327 c 0.26458,-0.49477 -0.48419,-0.93927 -0.75935,-0.4445 z"
           id="path88"
           style="fill:#2e576d;stroke-width:0.264583" />
        <path
           class="cls-9"
           d="m 287.48794,235.32642 a 16.917458,16.917458 0 0 1 24.50041,18.99973 c -0.13494,0.55033 0.71438,0.79375 0.84931,0.23283 a 17.803812,17.803812 0 0 0 -25.79952,-19.99456 c -0.50006,0.26458 -0.0556,1.02923 0.4445,0.75935 z"
           id="path90"
           style="fill:#b3b3b3;fill-opacity:1;stroke-width:0.264583" />
        <path
           class="cls-10"
           d="m 300.06623,250.13515 a 3.33375,3.33375 0 0 0 -1.143,-0.50006 3.1220833,3.1220833 0 0 0 0.79375,-0.66411 2.54,2.54 0 0 0 0.36777,-1.11389 c 0.0185,-0.26459 0.0635,-1.38642 -0.79375,-2.032 -0.6694,-0.50007 -1.43669,-0.69586 -2.46592,-0.762 v -2.26219 h -1.38112 v 2.23308 h -1.05834 v -2.23308 h -1.38112 v 2.23308 h -2.71463 v 1.44992 h 0.79375 c 0.21696,0 0.6059,0.0238 0.76994,0.20902 0.16404,0.18521 0.19315,0.2831 0.19315,0.64558 0,0.36248 0,5.63034 0,5.76792 a 0.56620833,0.56620833 0 0 1 -0.14288,0.41804 c -0.11642,0.11113 -0.23283,0.13759 -0.51064,0.13759 h -0.8255 l -0.27782,1.65893 h 2.71992 v 2.22779 h 1.38112 v -2.22779 h 1.05834 v 2.22779 h 1.38112 v -2.25425 c 0.35719,-0.0212 0.69057,-0.0476 0.88371,-0.0741 a 4.5693541,4.5693541 0 0 0 2.11667,-0.74348 c 0.83344,-0.58737 1.02129,-1.50548 1.03981,-2.42887 0.0185,-0.9234 -0.33337,-1.55575 -0.80433,-1.91294 z m -5.67796,-3.52425 c 0,0 0.43921,-0.0397 0.87312,-0.0317 a 4.3629791,4.3629791 0 0 1 1.38113,0.19579 1.2012083,1.2012083 0 0 1 0.9181,1.1139 1.0927292,1.0927292 0 0 1 -0.59531,1.05833 3.3443333,3.3443333 0 0 1 -1.4261,0.3519 c -0.50271,0.0185 -1.1483,0 -1.1483,0 z m 3.09298,6.66221 a 4.3576874,4.3576874 0 0 1 -1.56369,0.37835 c -0.61383,0.045 -1.52929,0.0265 -1.52929,0.0265 v -2.98979 c 0,0 0.87842,-0.045 1.56369,0 a 4.3947291,4.3947291 0 0 1 1.5187,0.35189 1.23825,1.23825 0 0 1 0,2.23309 z"
           data-name="BTC alt"
           id="BTC_alt-3"
           style="fill:#b3b3b3;fill-opacity:1;stroke-width:0.264583" />
        <path
           class="cls-11"
           d="m 299.74608,238.47761 a 7.8872291,7.8872291 0 0 1 2.86808,1.52135 c 0.21696,0.17992 0.52917,-0.12964 0.31221,-0.31221 a 8.4402082,8.4402082 0 0 0 -3.06387,-1.63248 0.21960416,0.21960416 0 0 0 -0.11642,0.42334 z"
           id="path93"
           style="fill:#ffffff;stroke-width:0.264583" />
        <rect
           class="cls-11"
           height="49.969208"
           rx="8.2946873"
           ry="8.2946873"
           width="68.617043"
           x="245.58058"
           y="245.76158"
           id="rect95"
           style="fill:#ffffff;stroke-width:0.264583" />
        <g
           class="cls-2"
           id="g99"
           style="opacity:0.15;fill:#b3b3b3;fill-opacity:1;stroke:none;stroke-opacity:1"
           transform="matrix(0.26458333,0,0,0.26458333,221.87127,220.1314)">
          <path
             class="cls-3"
             d="M 348.32,115.94 V 261 c 0,9.77 -24.11,26.77 -32.8,26.77 H 116.39 c -8.06,0 -14.76,-6.89 -15.68,-15.68 a 12.86,12.86 0 0 0 1.86,0.13 H 318.7 c 8.69,0 15.8,-8 15.8,-17.77 v -154 a 18.14,18.14 0 0 0 -0.12,-2.09 c 7.82,0.98 13.94,8.52 13.94,17.58 z"
             id="path97"
             style="fill:#b3b3b3;fill-opacity:1;stroke:none;stroke-opacity:1" />
        </g>
        <rect
           class="cls-9"
           height="0.91545832"
           width="8.7259579"
           x="245.53825"
           y="262.7796"
           id="rect101"
           style="fill:#b3b3b3;fill-opacity:1;stroke-width:0.264583" />
        <circle
           class="cls-9"
           cx="255.96283"
           cy="263.2373"
           r="1.8944166"
           id="circle103"
           style="fill:#b3b3b3;fill-opacity:1;stroke-width:0.264583" />
        <rect
           class="cls-9"
           height="0.91545832"
           width="17.848791"
           x="246.0145"
           y="267.29337"
           id="rect105"
           style="fill:#b3b3b3;fill-opacity:1;stroke-width:0.264583" />
        <circle
           class="cls-9"
           cx="265.32645"
           cy="267.7511"
           r="1.8944166"
           id="circle107"
           style="fill:#b3b3b3;fill-opacity:1;stroke-width:0.264583" />
        <rect
           class="cls-9"
           height="0.91545832"
           width="14.76375"
           x="245.53825"
           y="271.80716"
           id="rect109"
           style="fill:#b3b3b3;fill-opacity:1;stroke-width:0.264583" />
        <circle
           class="cls-9"
           cx="261.64871"
           cy="272.26489"
           r="1.8944166"
           id="circle111"
           style="fill:#b3b3b3;fill-opacity:1;stroke-width:0.264583" />
        <rect
           class="cls-9"
           height="0.91545832"
           width="17.785292"
           x="246.4881"
           y="276.32095"
           id="rect113"
           style="fill:#b3b3b3;fill-opacity:1;stroke-width:0.264583" />
        <circle
           class="cls-9"
           cx="265.32645"
           cy="276.77869"
           r="1.8944166"
           id="circle115"
           style="fill:#b3b3b3;fill-opacity:1;stroke-width:0.264583" />
        <circle
           class="cls-9"
           cx="238.03996"
           cy="247.70892"
           r="1.190625"
           id="circle117"
           style="fill:#b3b3b3;fill-opacity:1;stroke-width:0.264583" />
        <circle
           class="cls-12"
           cx="236.71704"
           cy="290.30685"
           r="1.190625"
           id="circle119"
           style="fill:#b3b3b3;fill-opacity:1;stroke:none;stroke-width:0.529167px;stroke-miterlimit:10" />
        <path
           class="cls-9"
           d="m 235.12954,254.98496 v 2.11667 a 0.396875,0.396875 0 0 0 0.79375,0 v -2.11667 a 0.396875,0.396875 0 0 0 -0.79375,0 z"
           id="path121"
           style="fill:#b3b3b3;fill-opacity:1;stroke-width:0.264583" />
        <path
           class="cls-9"
           d="m 236.58475,255.64642 h -2.11667 a 0.396875,0.396875 0 0 0 0,0.79375 h 2.11667 a 0.396875,0.396875 0 0 0 0,-0.79375 z"
           id="path123"
           style="fill:#b3b3b3;fill-opacity:1;stroke-width:0.264583" />
        <circle
           class="cls-12"
           cx="320.06079"
           cy="241.09435"
           r="1.190625"
           id="circle125"
           style="fill:#b3b3b3;fill-opacity:1;stroke:none;stroke-width:0.529167px;stroke-miterlimit:10" />
        <circle
           class="cls-9"
           cx="321.11911"
           cy="281.84018"
           r="1.190625"
           id="circle127"
           style="fill:#b3b3b3;fill-opacity:1;stroke-width:0.264583" />
        <path
           class="cls-9"
           d="m 317.15037,285.14746 v 2.11667 a 0.396875,0.396875 0 0 0 0.79375,0 v -2.11667 a 0.396875,0.396875 0 0 0 -0.79375,0 z"
           id="path129"
           style="fill:#b3b3b3;fill-opacity:1;stroke-width:0.264583" />
        <path
           class="cls-9"
           d="m 318.60558,285.80892 h -2.11667 a 0.396875,0.396875 0 0 0 0,0.79375 h 2.11667 a 0.396875,0.396875 0 0 0 0,-0.79375 z"
           id="path131"
           style="fill:#b3b3b3;fill-opacity:1;stroke-width:0.264583" />
        <path
           class="cls-9"
           d="m 305.17533,295.20163 h -49.29981 a 16.629062,16.629062 0 0 1 -1.99496,-0.0609 8.3317291,8.3317291 0 0 1 -6.95589,-6.04837 c -0.61913,-2.29658 -0.28046,-5.05619 -0.28046,-7.40833 v -24.4475 c 0,-0.79375 0,-1.5875 0,-2.38125 a 8.3846457,8.3846457 0 0 1 3.59568,-6.8633 c 2.24632,-1.54252 4.69371,-1.43933 7.24959,-1.43933 h 45.37604 c 2.80194,0 5.46894,0.045 7.74171,2.06111 2.80987,2.49237 2.80987,5.715 2.80987,9.08843 v 24.57715 c 0,2.52412 0.35719,5.51391 -0.65087,7.88194 a 8.3661249,8.3661249 0 0 1 -7.58032,5.02708 c -1.02129,0.0212 -1.02393,1.60867 0,1.5875 5.53244,-0.11377 9.78959,-4.54554 9.81869,-10.05417 0.0185,-2.91041 0,-5.8076 0,-8.71008 0,-7.65704 0.0397,-15.31408 0,-22.97113 -0.0265,-5.31812 -4.0296,-9.85308 -9.44827,-10.08856 -1.65894,-0.0714 -3.33375,0 -4.99269,0 h -25.7757 c -6.52727,0 -13.05719,-0.0291 -19.57917,0 -4.8895,0.0212 -9.27894,3.36286 -10.02242,8.32909 -0.35983,2.39977 -0.12171,4.97152 -0.12171,7.38452 v 24.83379 a 20.433771,20.433771 0 0 0 0.09,2.78341 9.9059999,9.9059999 0 0 0 5.02709,7.30515 c 2.36008,1.28058 4.80483,1.20385 7.36864,1.20385 h 47.625 c 1.02129,-0.003 1.02129,-1.59014 0,-1.59014 z"
           id="path133"
           style="fill:#b3b3b3;fill-opacity:1;stroke-width:0.264583" />
        <rect
           class="cls-11"
           height="12.194646"
           rx="3.175"
           ry="3.175"
           width="20.90473"
           x="298.52106"
           y="260.74231"
           id="rect135"
           style="fill:#ffffff;stroke-width:0.264583" />
        <g
           class="cls-2"
           id="g139"
           style="opacity:0.15;fill:#b3b3b3"
           transform="matrix(0.26458333,0,0,0.26458333,221.87127,220.1314)">
          <path
             class="cls-3"
             d="m 368.61,173.73 v 12 a 12,12 0 0 1 -12,12 h -55 a 12,12 0 0 1 -12,-12 v -12 a 12,12 0 0 0 12,12 h 55 a 12,12 0 0 0 12,-12 z"
             id="path137"
             style="fill:#b3b3b3" />
        </g>
        <path
           class="cls-9"
           d="M 316.25079,272.14319 H 306.149 c -1.44727,0 -2.91042,0.0556 -4.3524,0 -2.62996,-0.10319 -2.47914,-2.50031 -2.47914,-4.41325 0,-1.65894 -0.55563,-4.61698 1.00012,-5.73352 1.05833,-0.75406 2.8919,-0.45773 4.11427,-0.45773 3.82588,0 7.65969,-0.0741 11.48292,0 1.18269,0.0238 2.28071,0.50006 2.62731,1.75154 0.21696,0.79375 0.09,1.73567 0.09,2.53736 0,2.11666 0.73819,6.14627 -2.38125,6.3156 -1.016,0.0556 -1.02129,1.64306 0,1.5875 1.56633,-0.0847 2.96069,-0.889 3.61685,-2.35479 0.40746,-0.91017 0.3519,-1.85208 0.3519,-2.83369 0,-1.9685 0.50271,-4.83923 -0.5424,-6.61458 -1.12448,-1.91558 -3.06916,-1.9685 -5.00591,-1.9685 h -7.39246 c -1.82563,0 -3.65919,-0.0582 -5.48217,0 -2.5691,0.0794 -4.05077,1.9976 -4.06664,4.45029 0,1.19063 0,2.38125 0,3.57188 0,0.86783 -0.0979,1.82562 0.10318,2.68022 0.55563,2.38125 2.6723,3.07975 4.826,3.07975 h 13.5943 c 1.01864,-0.0106 1.01864,-1.59808 -0.003,-1.59808 z"
           id="path141"
           style="fill:#b3b3b3;fill-opacity:1;stroke-width:0.264583" />
      </g>
    </g>
    <g
       id="g1682"
       transform="matrix(1.0061373,0,0,1.0061373,52.465111,-209.78414)">
      <g
         id="g859"
         style="fill:#b3b3b3;stroke:#b3b3b3;stroke-width:5.002;stroke-miterlimit:4;stroke-dasharray:none;stroke-opacity:1"
         transform="matrix(0.26458333,0,0,0.26458333,575.85161,240.16634)">
        <path
           d="m 320.371,478.644 -1.059,0.097 -0.09,0.008 c -1.896,0.172 -3.251,1.846 -3.079,3.743 0.162,1.792 1.706,3.135 3.475,3.135 0.104,0 0.21,-0.005 0.316,-0.014 l 1.069,-0.099 c 1.897,-0.174 3.294,-1.854 3.119,-3.752 -0.174,-1.897 -1.849,-3.304 -3.751,-3.118 z"
           id="path8"
           style="fill:#b3b3b3;stroke:#b3b3b3;stroke-width:5.002;stroke-miterlimit:4;stroke-dasharray:none;stroke-opacity:1" />
        <path
           d="m 296.375,480.293 -1.773,0.076 c -78.801,4.229 -141.24,-6.316 -154.816,-8.853 v -336.42 c 0,-1.905 -1.544,-3.45 -3.45,-3.45 -1.906,0 -3.45,1.545 -3.45,3.45 v 71.295 l -7.084,8.837 -76.338,-64.035 23.446,-28.268 c 1.216,-1.466 1.014,-3.642 -0.453,-4.858 -1.467,-1.216 -3.641,-1.014 -4.858,0.453 l -25.637,30.91 c -1.211,1.46 -1.016,3.625 0.438,4.845 l 81.67,68.508 c 0.625,0.523 1.41,0.807 2.217,0.807 0.113,0 0.227,-0.005 0.34,-0.017 0.924,-0.091 1.771,-0.551 2.352,-1.275 l 3.907,-4.874 v 256.938 c 0,1.631 1.144,3.04 2.74,3.376 0.586,0.123 51.017,10.522 121.728,10.521 11.987,0 24.564,-0.299 37.573,-0.997 l 1.755,-0.075 c 1.904,-0.084 3.379,-1.695 3.294,-3.6 -0.085,-1.904 -1.695,-3.378 -3.601,-3.294 z"
           id="path10"
           style="fill:#b3b3b3;stroke:#b3b3b3;stroke-width:5.002;stroke-miterlimit:4;stroke-dasharray:none;stroke-opacity:1" />
        <path
           d="m 83,108.805 c 0.99,0 1.974,-0.425 2.656,-1.247 l 0.743,-0.896 c 1.217,-1.466 1.015,-3.641 -0.451,-4.858 -1.465,-1.216 -3.641,-1.015 -4.858,0.451 l -0.743,0.895 c -1.217,1.466 -1.015,3.642 0.452,4.858 0.643,0.536 1.425,0.797 2.201,0.797 z"
           id="path12"
           style="fill:#b3b3b3;stroke:#b3b3b3;stroke-width:5.002;stroke-miterlimit:4;stroke-dasharray:none;stroke-opacity:1" />
        <path
           d="M 470.038,149.43 399.062,63.86 c -0.255,-0.308 -0.562,-0.569 -0.906,-0.771 L 342.566,30.4 c 0,-10e-4 -10e-4,-10e-4 -0.002,-10e-4 l -10.525,-6.198 c -1.399,-0.825 -3.346,-0.504 -4.4,0.728 -14.353,16.744 -41.803,27.147 -71.639,27.147 -29.83,0 -57.276,-10.403 -71.628,-27.149 -1.057,-1.232 -3.012,-1.552 -4.409,-0.728 l -10.514,6.187 c 0,0 -0.001,0 -0.001,0.001 l -55.604,32.701 c -0.344,0.203 -0.651,0.464 -0.906,0.771 L 93.81,86.92 c -1.216,1.466 -1.014,3.641 0.453,4.857 0.644,0.534 1.424,0.795 2.2,0.795 0.991,0 1.975,-0.425 2.657,-1.248 l 18.742,-22.595 50.682,-29.807 c 6.137,28.515 43.104,50.149 87.456,50.149 44.348,0 81.318,-21.63 87.464,-50.141 l 50.674,29.799 68.399,82.464 -76.339,64.035 -7.073,-8.827 v -71.305 c 0,-1.905 -1.545,-3.45 -3.451,-3.45 -1.904,0 -3.449,1.545 -3.449,3.45 v 336.387 c -9.832,1.774 -19.564,3.308 -28.973,4.565 -1.888,0.252 -3.214,1.988 -2.962,3.877 0.231,1.732 1.713,2.993 3.415,2.993 0.152,0 0.307,-0.011 0.462,-0.03 10.421,-1.394 21.231,-3.121 32.134,-5.135 1.637,-0.303 2.824,-1.729 2.824,-3.393 V 217.435 l 3.896,4.862 c 0.581,0.724 1.429,1.184 2.353,1.276 0.113,0.011 0.227,0.017 0.34,0.017 0.807,0 1.593,-0.284 2.217,-0.807 l 81.67,-68.508 c 1.453,-1.22 1.649,-3.385 0.437,-4.845 z M 256,82.171 c -42.363,0 -77.377,-20.463 -81.133,-46.968 l 6.194,-3.645 c 16.043,16.975 44.415,27.418 74.939,27.418 30.526,0 58.9,-10.443 74.945,-27.414 l 6.197,3.649 C 333.378,61.712 298.359,82.171 256,82.171 Z"
           id="path14"
           style="fill:#b3b3b3;stroke:#b3b3b3;stroke-width:5.002;stroke-miterlimit:4;stroke-dasharray:none;stroke-opacity:1" />
      </g>
      <g
         id="g875"
         transform="matrix(0.32439147,0,0,0.32439147,558.68014,226.8957)"
         style="fill:#b3b3b3">
        <path
           d="m 299.43833,168.46648 h -75.41017 c -8.66149,0 -15.71262,7.04592 -15.71262,15.71262 v 75.41538 c 0,8.66148 7.04592,15.71262 15.71262,15.71262 h 75.41538 c 8.66148,0 15.71262,-7.04593 15.71262,-15.71262 V 184.1791 c -0.005,-8.6667 -7.05114,-15.71262 -15.71783,-15.71262 z m 9.42757,91.12279 c 0,5.19584 -4.22651,9.42757 -9.42757,9.42757 h -75.41017 c -5.19585,0 -9.42757,-4.22651 -9.42757,-9.42757 v -11.36625 l 25.35907,-28.17849 34.25509,31.13861 18.94374,-15.78558 15.71262,13.09125 v 11.10046 z m 0,-19.27728 -15.71262,-13.09125 -18.76656,15.63445 -34.87003,-31.70666 -24.9161,27.6834 V 184.1791 c 0,-5.19585 4.22651,-9.42757 9.42757,-9.42757 h 75.41538 c 5.19585,0 9.42757,4.22651 9.42757,9.42757 v 56.13289 z"
           id="path2"
           style="fill:#b3b3b3;stroke-width:5.21148" />
        <path
           d="m 283.73091,215.59913 c 8.66149,0 15.71263,-7.04592 15.71263,-15.71262 0,-8.6667 -7.04593,-15.71262 -15.71263,-15.71262 -8.66148,0 -15.71262,7.04592 -15.71262,15.71262 0,8.6667 7.04593,15.71262 15.71262,15.71262 z m 0,-25.13498 c 5.19585,0 9.42758,4.22651 9.42758,9.42757 0,5.20106 -4.22651,9.42758 -9.42758,9.42758 -5.20106,0 -9.42757,-4.22652 -9.42757,-9.42758 0,-5.20106 4.22651,-9.42757 9.42757,-9.42757 z"
           id="path4"
           style="fill:#b3b3b3;stroke-width:5.21148" />
      </g>
    </g>
    <g
       id="g1722"
       transform="matrix(15.240067,0,0,15.240067,-12706.913,-3288.907)">
      <path
         class="cls-1"
         d="m 923.38154,220.25158 v 3.59833 h -2.55587 a 0.64029166,0.64029166 0 0 0 -1.27794,0 h -0.64823 v -3.59833 z"
         id="path8-4"
         style="fill:none;stroke:#b3b3b3;stroke-width:0.264583;stroke-linecap:round;stroke-linejoin:round;stroke-opacity:1" />
      <path
         class="cls-1"
         d="m 925.51408,222.57991 v 1.27 h -0.42598 a 0.64029166,0.64029166 0 0 0 -1.27793,0 h -0.42863 v -2.54 h 0.89165 z"
         id="path10-3"
         style="fill:none;stroke:#b3b3b3;stroke-width:0.264583;stroke-linecap:round;stroke-linejoin:round;stroke-opacity:1" />
      <path
         class="cls-1"
         d="m 925.51408,222.57991 v 1.27 h -0.42598 a 0.64029166,0.64029166 0 0 0 -1.27793,0 h -0.42863 v -1.27 z"
         id="path12-8"
         style="fill:none;stroke:#b3b3b3;stroke-width:0.264583;stroke-linecap:round;stroke-linejoin:round;stroke-opacity:1" />
      <ellipse
         class="cls-1"
         cx="920.18536"
         cy="223.84991"
         rx="0.64029169"
         ry="0.63499999"
         id="ellipse14"
         style="fill:none;stroke:#b3b3b3;stroke-width:0.264583;stroke-linecap:round;stroke-linejoin:round;stroke-opacity:1" />
      <ellipse
         class="cls-1"
         cx="924.44781"
         cy="223.84991"
         rx="0.64029169"
         ry="0.63499999"
         id="ellipse16"
         style="fill:none;stroke:#b3b3b3;stroke-width:0.264583;stroke-linecap:round;stroke-linejoin:round;stroke-opacity:1" />
      <line
         class="cls-1"
         x1="917.5766"
         x2="918.26715"
         y1="220.67491"
         y2="220.67491"
         id="line18"
         style="fill:none;stroke:#b3b3b3;stroke-width:0.264583;stroke-linecap:round;stroke-linejoin:round;stroke-opacity:1" />
      <line
         class="cls-1"
         x1="917.5766"
         x2="918.26715"
         y1="221.52158"
         y2="221.52158"
         id="line20"
         style="fill:none;stroke:#b3b3b3;stroke-width:0.264583;stroke-linecap:round;stroke-linejoin:round;stroke-opacity:1" />
      <line
         class="cls-1"
         x1="917.5766"
         x2="918.26715"
         y1="222.36824"
         y2="222.36824"
         id="line22"
         style="fill:none;stroke:#b3b3b3;stroke-width:0.264583;stroke-linecap:round;stroke-linejoin:round;stroke-opacity:1" />
    </g>
    <g
       id="g1820"
       transform="translate(-0.02981567)">
      <rect
         style="fill:#c9c9c9;fill-opacity:1;stroke:none;stroke-width:1.38809;stroke-linecap:round;stroke-linejoin:bevel;paint-order:stroke markers fill"
         id="rect1796"
         width="500"
         height="3.4904063"
         x="148.72314"
         y="98.254799" />
      <rect
         style="fill:#c9c9c9;fill-opacity:1;stroke:none;stroke-width:1.38809;stroke-linecap:round;stroke-linejoin:bevel;paint-order:stroke markers fill"
         id="rect1796-6"
         width="500"
         height="3.4904063"
         x="751.33649"
         y="98.254799" />
    </g>
  </g>
</svg>
