<svg id="Layer_1" data-name="Layer 1" xmlns="http://www.w3.org/2000/svg" viewBox="0 0 2557.01 413.11"><defs><style>.cls-1{fill:#bdbdbd;}.cls-2{fill:#b2b2b2;}.cls-3{fill:#bababa;}.cls-4{fill:#b4b4b4;}.cls-5{fill:#fefefe;}.cls-6{fill:#fdfdfd;}.cls-7{fill:#b3b3b3;}.cls-8{fill:#f3f3f3;}.cls-9{fill:#c1c1c1;}.cls-10{fill:#c6c6c6;}.cls-11{fill:#bebebe;}.cls-12{fill:#c5c5c5;}.cls-13{fill:#b6b6b6;}.cls-14{fill:#c3c3c3;}.cls-15{fill:silver;}.cls-16{fill:#b9b9b9;}.cls-17{fill:#bfbfbf;}.cls-18{fill:#c2c2c2;}.cls-19{fill:#bcbcbc;}.cls-20{fill:#f6f6f6;}.cls-21{fill:#c4c4c4;}.cls-22{fill:#b8b8b8;}.cls-23{fill:#b5b5b5;}.cls-24{fill:#f2f2f2;}.cls-25{fill:#f4f4f4;}.cls-26{fill:#f9f9f9;}.cls-27{fill:#ededed;}.cls-28{fill:#f8f8f8;}.cls-29{fill:#e7e7e7;}.cls-30{fill:#f5f5f5;}.cls-31{fill:#fbfbfb;}</style></defs><path class="cls-1" d="M1506.65,492.7c-1.12,0-1.75-.5-1.79-1.55a1.71,1.71,0,0,1,1.45-1.94c1-.12,1.58.64,1.68,1.62A1.57,1.57,0,0,1,1506.65,492.7Z" transform="translate(-275.29 -303.89)"/><path class="cls-2" d="M2495.41,547.76c0-26.34.33-52.69-.15-79-.2-11,3.9-14.71,14.9-14.65q102.24.54,204.48,0c10.19-.05,15.15,2.84,13.62,13.49a7.42,7.42,0,0,0,0,1.49c.72,11.32-4.54,25.26,2.15,33.3,6.52,7.84,20.6,2.35,31.32,2.71,7,.23,10.85,4.21,15,8.47q25.92,26.76,51.74,53.61c1.35,1.4,3.65,2.92,3.67,4.41q.36,32.75.06,65.5c0,2.6-2.58,5.27-4.87,4.85-14.13-2.63-17.42,8.73-24.05,16.93-18,22.28-49.57,18.83-62.74-7-3.87-7.58-8.26-9.5-16.06-9.43q-54.48.51-108.95,0c-7.76-.07-12.23,1.75-16.14,9.34-14.36,27.87-50.68,29.42-66.18,2.49-5.32-9.25-10.72-13.16-20.76-11.7-13.43,1.95-17.4-4.83-17.16-17.28C2495.76,599.47,2495.41,573.61,2495.41,547.76Z" transform="translate(-275.29 -303.89)"/><path class="cls-3" d="M2453.16,529c-6-2.67-20.24,5.81-19.82-7.89.34-11.31,13.57-5.12,21.08-6.42,4.31-.75,8.87-.17,13.31-.07,4.84.11,9.33,1.55,9.31,7.19s-4.32,7.18-9.28,7.19Z" transform="translate(-275.29 -303.89)"/><path class="cls-3" d="M2456.57,556.28c5.89,2.39,19.38-5.18,19.65,6.57.32,13.43-13.56,6.1-21.18,7.73-4.24.9-8.84.22-13.27.08-4.83-.15-9.26-1.65-9.22-7.29s4.67-6.91,9.4-7.06C2446.38,556.17,2450.82,556.28,2456.57,556.28Z" transform="translate(-275.29 -303.89)"/><path class="cls-4" d="M2454.72,475c4,0,7.92-.17,11.86,0,4.18.23,9.94-1.25,10.19,5.36.22,5.9-4.57,6.85-9.35,6.87-8.41,0-16.81.08-25.21,0-4.68-.07-9.6-.88-9.45-6.84.17-6.74,6-5.1,10.1-5.35C2446.8,474.79,2450.77,475,2454.72,475Z" transform="translate(-275.29 -303.89)"/><path class="cls-5" d="M2613.32,466.45c30.37,0,60.74.17,91.11-.11,7.74-.07,12,1.36,11.76,10.52q-1.62,70.78-2.34,141.59c-.09,8.27-4.06,9.88-11.13,9.83-29.87-.18-59.75-.22-89.62.05-6.27,0-9.6-2.23-12.88-7.59-18.54-30.22-50.83-30.45-68.6-.28-4.13,7-9,8.54-15.85,7.5-8.47-1.29-5.76-8.17-5.78-13-.2-44.77.22-89.54-.36-134.31-.14-10.93,2.61-14.74,14.07-14.44C2553.56,467,2583.44,466.45,2613.32,466.45Z" transform="translate(-275.29 -303.89)"/><path class="cls-6" d="M2810.17,567.7c-27,0-50.17-.11-73.3.07-6.43.05-8.9-2.71-8.64-8.9.23-5.43-.64-11,.18-16.3,1.28-8.22-5-18.62,4.28-24.39,8.61-5.36,31.24.58,39.3,9C2784,539.57,2795.64,552.24,2810.17,567.7Z" transform="translate(-275.29 -303.89)"/><path class="cls-6" d="M2773.88,580.14c5.47,0,11-.55,16.41.12,9,1.14,22.94-5.12,26,3.58,4.26,11.94,1.73,26.43,1.41,39.81-.1,4-3.52,4.19-6.32,1.53-1-1-1.59-2.48-2.4-3.71-20.75-31.48-49.11-31.27-70.43.55-1.6,2.38-2.27,5.85-6.18,5.34-5.17-.68-3.7-4.94-4.14-8.13-.06-.49,0-1,0-1.49C2726.32,580.14,2726.32,580.14,2773.88,580.14Z" transform="translate(-275.29 -303.89)"/><path class="cls-6" d="M2565.41,660.49c-11.57,0-24.41-11.48-24.46-21.82-.06-13.16,11.33-25.3,24-25.62,12.53-.31,25.05,11.8,25.33,24.51C2590.58,648.84,2577.89,660.52,2565.41,660.49Z" transform="translate(-275.29 -303.89)"/><path class="cls-5" d="M2773.69,613.82c14.21.17,24,10.42,23.71,24.89-.22,12-10.53,21.6-23.4,21.78-11.68.17-24.38-10.87-24.59-21.39C2749.15,626.14,2761.13,613.67,2773.69,613.82Z" transform="translate(-275.29 -303.89)"/><path class="cls-7" d="M672.67,439c3.77,19.85,12.9,38.76,10.09,59.8-.83,6.23,5,6.77,9.16,7.69,13.11,2.93,17.53,11.86,17.53,24.1,0,8,.23,16-.26,23.9-.61,9.75-4.87,17.68-15.16,19.59-10.12,1.89-12.23,7.53-11.66,16.83.75,12.4-.57,24.94.35,37.32,1.66,22.31-4.16,41.29-21.7,56-7.47,8.65-17.37,11.23-28.28,11.26-85,.24-170,.47-255-.13-26.24-.18-42.81-13.87-50.44-39.05a91.68,91.68,0,0,1-4.09-26.57c-.1-41,0-82,0-122.93,0-7.09.61-14,4.91-20,1-9,4-17.76,2.61-27,1.27-2.52,4.65-1.38,6.15-3.53.89-8,8.86-10.95,12.34-17.1,7.76-10,19.1-11.83,30.53-12.93,7.13-.68,14.87.62,10.13-11.1-1.51-3.75,2.22-7.33,4.54-10.56a7,7,0,0,1,4.86-2.7c14-5.82,26.36-2.13,40.05,14.84,6.26,7.77,12.51,10.46,23.11,8.34-5.18-3.21-7.1-7-4.6-12.21,6.16-12.86,7.09-25.57-1.43-38-1.58-2.3-.19-4.74,1.82-6.55,4-3.45,10.14-.56,13.81-4.85.46-2.82,3.13-7.54,4.48-3.94,5.52,14.75,7.46.09,11.72-1.66,2.49,5.67,3.53,11.7,11.45,13.16,5.95,1.09,8.86,7.35,6.72,14.31-.89,2.91-4.6,6,.12,8.95,10.87,6.7,9.52,13.84,2.37,23.14-6.93,9-2.73,13.43,8,12.23a36.28,36.28,0,0,1,6.39-3,290.14,290.14,0,0,0,57-6.17c26.86,11,58.71-3.12,83.87,16.46C665.84,442.08,669.44,439.81,672.67,439Z" transform="translate(-275.29 -303.89)"/><path class="cls-8" d="M328,486.77c.07,48.9-.24,97.81.41,146.7.27,19.87,4.74,38.59,23.62,50.36a46.55,46.55,0,0,0,25.44,7.23q128.12-.06,256.21.1c9.9,0,18.35-4.13,27.32-6.95-6.36,18.67-22.17,24.22-39,24.34-89.94.65-179.88.5-269.82.17-20.08-.08-39.16-19.71-39.3-39.92-.35-50.42-.45-100.86.14-151.27C313.23,505.67,316,493.59,328,486.77Z" transform="translate(-275.29 -303.89)"/><path class="cls-6" d="M396.61,406.09c-.37,5.1-7.93,9-.06,15.72,6,5.17,0,8.43-5.93,7.86-14.95-1.44-28.29,3.63-41.49,9.5-6.4-3.88-5.11-9.46-3.34-15.14,3.6-5.65,5-12.24,8-18.17,2-5.84,6.33-10.12,9.79-15l3.51-3.53c5.35-4.87,10.66-9.81,18-11.67l-.2.13c12.37-6.82,13.25-6.39,14.95,7.4C398.39,390.78,396.5,398.29,396.61,406.09Z" transform="translate(-275.29 -303.89)"/><path class="cls-9" d="M490.24,309.29c-16.7-1.05-32.31,3.83-48,8.34,16.83-9.84,34-18.1,54.35-11.2C495.16,308.94,492,307.53,490.24,309.29Z" transform="translate(-275.29 -303.89)"/><path class="cls-10" d="M400.27,363.87c1.09-3.93,4.28-8.22-3.25-9.77-2.29-.48-2-1.8,3.23-4.92,3.34,1.8,8,1.32,9.95,5.57,1.4,4,4.77,5.89,8.13,7.85a15,15,0,0,1,4.23,6.85c.48,2.84.12,5.36-2.64,7-2.05.42-3.8-.36-5.48-1.38-2.1-1.28-4.23-2.56-6.41-3.74C404.83,369.47,401.49,367.77,400.27,363.87Z" transform="translate(-275.29 -303.89)"/><path class="cls-11" d="M472,363.45c-2.05,5.95-6.84,6.56-12.12,6.2-6.05-6.37-15.56-7.47-21.45-14.09a3.61,3.61,0,0,1,.59-3.74C451.68,350.85,459.94,362.46,472,363.45Z" transform="translate(-275.29 -303.89)"/><path class="cls-3" d="M523.39,429.61l-6.54,0c5.88-13.59,14.61-24.84,27.09-33,2.88-1.5,3.65.34,4.14,2.61C541.8,410.94,530.69,418.72,523.39,429.61Z" transform="translate(-275.29 -303.89)"/><path class="cls-12" d="M571.11,366.89l3.35.18A27,27,0,0,0,592,367a34,34,0,0,1,21.74,5.3,6.41,6.41,0,0,1-5.23,4.95c-12.41-1.12-25.22,2-37.24-3.45C569.39,371.53,569.18,369.23,571.11,366.89Z" transform="translate(-275.29 -303.89)"/><path class="cls-3" d="M400.27,363.87l8.6,5.46c-2.6,5.45-4.79,11.12-8.58,15.92a4.07,4.07,0,0,1-3.84-.58c1.91-10.51-2.27-13.06-11.61-8.87C386.1,366.81,396.64,369.8,400.27,363.87Z" transform="translate(-275.29 -303.89)"/><path class="cls-13" d="M408.81,354.64l-8.57-5.46c3.16-.63,6.65-.36,8.95-3.31,3.25-1.95,4.28,1.57,6.33,2.57,6,0,12.15.86,17.23-3.56,3.09,3.36,1.41,6.7,0,10.05-2,2.93-3.94,6-7.94,6.56a9.65,9.65,0,0,1-3.39-2.24C418.1,355.26,413.23,355.57,408.81,354.64Z" transform="translate(-275.29 -303.89)"/><path class="cls-7" d="M336.79,456.28c-1,2.94-3.5,3.4-6.15,3.53-5.34-11.72-2.76-23.95-2.29-36a1.74,1.74,0,0,1,2.8,0C332.77,434.67,326.48,446.92,336.79,456.28Z" transform="translate(-275.29 -303.89)"/><path class="cls-14" d="M294.38,438.71c3.31.11,5.87,1.33,5.76,5.06-.13,4-2.59,6.36-6.56,6.31-3.65,0-4.91-2.68-4.8-6C288.9,440.6,290.93,438.88,294.38,438.71Z" transform="translate(-275.29 -303.89)"/><path class="cls-14" d="M522.9,313.19c8.32,2.63,14.39,8.26,19.75,15.05-9.2-1.24-15.35-8.2-23-12.23C520,314.2,521.75,314.05,522.9,313.19Z" transform="translate(-275.29 -303.89)"/><path class="cls-15" d="M456.78,327.54c8.54-5.88,17.9-7,29-5.19-8.34,6.45-18,4.27-26,7.89A4.78,4.78,0,0,1,456.78,327.54Z" transform="translate(-275.29 -303.89)"/><path class="cls-16" d="M430,354.31q1.4-4.71,2.8-9.42c4.1-5.72,8.9-10.63,15.5-13.47a3.55,3.55,0,0,1,2.78,2.3c-3.24,6.55-16.89,6.18-12.06,18.1v2.63C435.92,357.22,432.91,357.25,430,354.31Z" transform="translate(-275.29 -303.89)"/><path class="cls-17" d="M625,376.38c8.33,5.5,19.85,7.72,21.18,20.46l-2,.58c-8.81-3.9-16.89-8.78-22.71-16.74C621.29,378.16,622.71,376.92,625,376.38Z" transform="translate(-275.29 -303.89)"/><path class="cls-1" d="M713.84,610.2c3.51.44,5.26,2.76,5.62,6,.4,3.65-1.87,5.59-5.28,5.63-4,0-6.85-2.11-6.56-6.31C707.86,612.16,710.52,610.52,713.84,610.2Z" transform="translate(-275.29 -303.89)"/><path class="cls-18" d="M709.69,417c-4.42-.86-6.31-3.13-6.39-6.39s1.4-6.17,5.09-5.95,6.74,2.2,6.31,6.67C714.36,414.77,711.73,416.07,709.69,417Z" transform="translate(-275.29 -303.89)"/><path class="cls-19" d="M522.9,313.19,519.63,316l-29.4-6.71,6.33-2.87C506.08,305.82,514.29,310.3,522.9,313.19Z" transform="translate(-275.29 -303.89)"/><path class="cls-14" d="M331.49,409c2.46-7.42,5.42-14.55,11.5-20-.23,8.79-5.46,15.57-8.89,23A5,5,0,0,1,331.49,409Z" transform="translate(-275.29 -303.89)"/><path class="cls-18" d="M561.75,387.49l6.2-2.95,2.13.78c6.44,5.82,4.11,14.17,6.17,21.26,0,2.38-.54,4.53-2.51,6.09-13.77-.36-7-12.56-10.84-18.67A20.32,20.32,0,0,1,561.75,387.49Z" transform="translate(-275.29 -303.89)"/><path class="cls-20" d="M523,336.17l-23.76-10.9C511,324.08,517.23,329.66,523,336.17Z" transform="translate(-275.29 -303.89)"/><path class="cls-10" d="M562.67,373.18l-19.41,8.47c2.71-9.15,10.23-8.87,16.12-11.48C560.54,371.1,562.39,371.28,562.67,373.18Z" transform="translate(-275.29 -303.89)"/><path class="cls-21" d="M385,375.67c-5.75,4.26-9.89,11-18,11.67C370,378.68,375.41,374,385,375.67Z" transform="translate(-275.29 -303.89)"/><path class="cls-7" d="M293,658.45c-.37,4.34-2.78,5.6-6.11,5.58-2.83,0-5-1.71-5.19-4.31a5.58,5.58,0,0,1,5.28-6.08C290.27,653.4,292.19,655.9,293,658.45Z" transform="translate(-275.29 -303.89)"/><path class="cls-18" d="M282.7,480.61c.89,1.08,4,3.18,4.11,5.43.13,2.59-3.07,5.86-5.8,5.3-2.22-.46-3.84-3.88-5.72-6Z" transform="translate(-275.29 -303.89)"/><path class="cls-11" d="M660.91,408.87l8.72,18.18c-.8,2-1.75,3.83-4.43,3.41-6.69-4.31-7.89-11.19-8.59-18.31C657.2,410,658.17,408.25,660.91,408.87Z" transform="translate(-275.29 -303.89)"/><path class="cls-12" d="M559.27,345.49c4.42,4.27,6.43,9.86,8.47,15.44-.91,1.08-1.07,2.86-2.86,3.14q-4.26-7.72-8.5-15.46C557.18,347.41,557.43,345.72,559.27,345.49Z" transform="translate(-275.29 -303.89)"/><path class="cls-22" d="M355.16,406.08c-2.73,6.19-1.82,14.27-9.37,17.95-.53-7.86,4.38-14,6.56-21C355,402.5,356.62,402.87,355.16,406.08Z" transform="translate(-275.29 -303.89)"/><path class="cls-17" d="M561.75,387.49q1.69,1.51,3.4,3c-1.35,3-4.29,4.05-6.86,5.54q-2.32,1.38-4.62,2.79c-2.14,1-4.26,2.63-6.59.4l-3.14-2.62C548.91,391.7,555,389,561.75,387.49Z" transform="translate(-275.29 -303.89)"/><path class="cls-22" d="M564.88,364.07l2.87-3.15,3.36,6c.14,2.14.29,4.27.43,6.41a4.06,4.06,0,0,1,1,3.29c-.81,1.74-1.83,3.05-4,2-.61-3.24-2.12-5.51-5.85-5.39l-3.28-3C562.7,369.48,565.14,368,564.88,364.07Z" transform="translate(-275.29 -303.89)"/><path class="cls-15" d="M374.26,360.81c4.43-4.59,9-7.89,17.16-8.18C385.93,359.69,379.74,360,374.26,360.81Z" transform="translate(-275.29 -303.89)"/><path class="cls-21" d="M355.16,406.08c-.94-1-1.88-2.05-2.81-3.08,2.83-4.88,4.36-11,11.22-12.13C363.59,397.5,358.54,401.33,355.16,406.08Z" transform="translate(-275.29 -303.89)"/><path class="cls-9" d="M660.91,408.87l-2.74,3.18c-7.94-2.06-12.17-7-11.87-15.38l-.15.17C654.61,396.51,657.37,403.17,660.91,408.87Z" transform="translate(-275.29 -303.89)"/><path class="cls-23" d="M701.89,638.77,695,643.94c-1-2.58-5.64-3.1-4.38-6.47.76-2.07,3.37-3.44,5.15-5.13Z" transform="translate(-275.29 -303.89)"/><path class="cls-4" d="M667,430.22l2.64-3.18q1.51,6,3,12c-3.26-.3-1.47,13.8-8.43,3C666.74,438.42,662.52,433.31,667,430.22Z" transform="translate(-275.29 -303.89)"/><path class="cls-23" d="M625,376.38l-3,2.48c-5.24,3.19-8.75.82-11.63-3.61l3.36-2.95C618,372.29,621.56,374.05,625,376.38Z" transform="translate(-275.29 -303.89)"/><path class="cls-13" d="M331.49,409c.87,1,1.73,2,2.6,3-.52,4,.63,8.48-2.94,11.74-.94,0-1.87,0-2.8,0Q329.92,416.4,331.49,409Z" transform="translate(-275.29 -303.89)"/><path class="cls-10" d="M415.52,348.44l-6.33-2.57c1.33-3.14,3-6,6.66-7.45C419.81,341.89,413.71,345.13,415.52,348.44Z" transform="translate(-275.29 -303.89)"/><path class="cls-2" d="M451,333.72l-2.78-2.3,8.53-3.88,3,2.7Z" transform="translate(-275.29 -303.89)"/><path class="cls-2" d="M592,367c-5.82,4.13-11.66,4.07-17.51.07Z" transform="translate(-275.29 -303.89)"/><path class="cls-18" d="M568.51,378.56l2.87-3.19c6.13,1.16,5.27,5.08,3.69,9.29-2.21,1.92-4.47,1.7-6.77.17l-.35-.29C568.14,382.54,568.32,380.55,568.51,378.56Z" transform="translate(-275.29 -303.89)"/><path class="cls-1" d="M559.27,345.49l-2.89,3.12c-.66-3-6.91-4.94-3.1-8.22C555.36,338.6,557.83,342.93,559.27,345.49Z" transform="translate(-275.29 -303.89)"/><path class="cls-5" d="M337.15,564.26c-2.26-13.38,2.51-18.61,16.8-17.54,17.38,1.32,34.92.38,52.4.28,7,0,13.74-.27,19.58,5.1,4.11,3.78,9,3.88,13.11-1,3.5-4.15,3.2-8.19-.31-12-4-4.38-9-5.44-13.06-1-5.57,6.1-12.38,5.43-19.33,5.42-17.48,0-35-1-52.4.31-14.34,1.1-19-4.27-16.88-17.56,10-6.88,21.19-2,31.71-3.39,5-.45,9.24,2.55,14,3.39,2.54.45,5.23-.24,5.33-3.3s-2.49-4-5.08-3.63c-4.77.63-9,3.79-14,3.4-10.59-1.5-21.89,3.67-31.81-3.54.83-16.42-2-33,2.2-49.26,4.56-17.78,19-31,37.45-31.05,85.6-.39,171.21-.25,256.81-.09,9,0,17.82,2.2,24.72,8.88,6.8,19,7.85,38-.06,57.07-12.51.11-25-.22-37.53.43-17.79.92-25.22,8.67-25.4,26.53-.11,9.93-1.72,20.06,1.46,29.79,2.15,6.56,6.54,11.15,13.54,12.79,12.87,2.35,25.87,1.09,38.79.89,9-.13,13.1,3.79,13.45,12,.87,20.44,1.66,40.94-.39,61.31-1.48,14.67-9.88,21.72-25,22.83-11.45.85-23,.34-34.44.34q-115.36,0-230.71,0c-9,0-18.1.71-26-4.9-14.63-21.25-7.88-45.23-8.44-68.2-.15-5.84,5.48-6.24,10.12-6.25,22,0,43.93.19,65.88-.16,6.41-.1,9.63,4.57,14.29,7.12,4.13,2.27,7.75.81,10.7-2.44s4.27-7,1.34-10.78c-2.54-3.33-6.95-6.48-10.27-4-16.71,12.6-35.65,4.39-53.41,6.49-7.39.87-15.08-.73-22.42.32C339.4,591,335,584.64,337.18,571.43c7.17-6.47,15.89-3.09,23.9-3.46,12.2-.55,24.45-.2,36.65-.1,4-.24,7.68,1.27,11.31,2.89,2.31,1,4.78,1.57,6.84-.5a3,3,0,0,0,.22-4c-1.8-2.26-4.29-2.09-6.72-1.2-2.77,1-5.36,2.57-8.46,2.63-16.23.29-32.41.18-48.6.08C347.08,567.7,341.37,569,337.15,564.26Z" transform="translate(-275.29 -303.89)"/><path class="cls-8" d="M346.05,666.78q144.52,0,289.05.07c16.58,0,22.79-5.72,23.1-22,.35-19-.21-37.92.21-56.86.19-8.5-3.1-11-11.37-11.32-12.24-.44-24.81,3.09-36.71-2.39,16,.1,32-.12,48,.4,10.83.35,16.94,4.77,15.65,17.55a219.71,219.71,0,0,0-.12,40.47c3.42,40.3-23.49,52.24-53.12,52.11-77.59-.34-155.17-.16-232.76-.08-12.79,0-24.86-2.25-35.25-10.08C350.06,672.61,348.26,669.43,346.05,666.78Z" transform="translate(-275.29 -303.89)"/><path class="cls-5" d="M575,384.29q-1.79-4.47-3.59-8.92c.06-.7.11-1.39.15-2.08,13-1.07,26.05-2.07,38.81,2l11.63,3.6,24.33,17.81,11.87,15.38L667,430.22c-.44,4,2.3,8.79-2.75,11.75-10.14-9.28-22.63-10.78-35.7-12.64-13.61-1.94-29.19,8.34-41.22-7.08-3-3.85-2.28,6.84-7.15,6.6,1.37-7-10.23-9.41-6.11-17.36-.08-2-.16-3.95-.25-5.93C571.17,398.3,573.05,391.29,575,384.29Z" transform="translate(-275.29 -303.89)"/><path class="cls-5" d="M604.37,549.77c-1.55-36-1.55-36,33.71-36,14,0,28-.07,42,0,18.14.11,20.39,2.44,20.5,21,0,5-.13,10-.2,15-4.85,6-11.59,7.38-18.79,7.48q-29.22.42-58.45,0C615.93,557.19,609.14,556,604.37,549.77Z" transform="translate(-275.29 -303.89)"/><path class="cls-5" d="M430,354.31l9,.14c6.53,5.66,19.36,2.66,20.86,15.2-4.85,8.09,9.23,7.13,6.95,16.12-2.73,10.83,2.35,23.52-8.35,32,2.65,4,5.95,2.64,8.67,3.19s4.47,2.14,4.08,5.06c-.29,2.18-2.06,3.89-4.09,3.41-10.35-2.43-24.93,8.68-30.24-10.74-2.13-7.8-17.69-5.09-16.68-17.26-7,.33-3.14,7.31-7.27,8.87-3.71,1.23-5.81-20.56-10.92-.9-2.88-1.34-1.78-4.21-2.47-6.4-3.54-6.12-3.46-12.21.15-18.27,1.23-6.22.48-13.63,9.21-15.36,2.5.5,5.15.75,6.36,3.55,1.66.41-.54,4.47,3,3.13,2.16-1.62,2.75-3.86,2.57-6.42a7.5,7.5,0,0,1,3.24-8.76Z" transform="translate(-275.29 -303.89)"/><path class="cls-24" d="M604.37,549.77a316.45,316.45,0,0,0,96,0c1.23,12.83-4.75,18.14-17.46,17.93-20.42-.35-40.86-.18-61.28.12C609,568.05,602.86,562.7,604.37,549.77Z" transform="translate(-275.29 -303.89)"/><path class="cls-6" d="M574.06,411.49c1.05,6.14,8.35,10.08,6.11,17.37-3.2-1.07-4.38-15.67-10-1.35-1.47,3.73-6.21,2.14-9.5,2.17-12.42.12-24.84,0-37.25-.07,2.51-14.32,14.26-21.44,23.69-30.37l6.07-2.36c3.31,3.58-.54,8.87,2.42,12-1.1-4.55-2.12-9.5.72-14.4l8.86-4c5,3.47,3,8.66,3.13,13.23C568.43,407.82,568.43,411.65,574.06,411.49Z" transform="translate(-275.29 -303.89)"/><path class="cls-25" d="M658.26,504.73l.06-57.07c13.12,11.49,20.47,37,15,52.29C670.43,508.18,663.53,503.88,658.26,504.73Z" transform="translate(-275.29 -303.89)"/><path class="cls-11" d="M337.15,564.26c22.81.92,45.62,1.42,68.42-.3,2.28,3.45.26,5.25-2.58,6.73l-65.81.73Z" transform="translate(-275.29 -303.89)"/><path class="cls-26" d="M495.35,406.34c-1.86,5.68-6.53,5.44-11,5.42-6.79,0-6.17-5-6-9.48s3.13-5.78,7.1-5.3C491.1,397.65,494.2,401,495.35,406.34Z" transform="translate(-275.29 -303.89)"/><path class="cls-16" d="M337.14,519.18l35.79.92c1.69,1.61,1.54,3.22,0,4.84l-35.89,1.31C337.09,523.89,337.11,521.54,337.14,519.18Z" transform="translate(-275.29 -303.89)"/><path class="cls-27" d="M425.92,426.46c-1.91,5.07-6.43,3.11-10,3.31-4,.23-7-1.58-6.13-6.08.76-3.9,3.46-6,7.66-4.49C421.06,420.51,425.22,421.37,425.92,426.46Z" transform="translate(-275.29 -303.89)"/><path class="cls-18" d="M399.66,384.69,399.51,403l-2.9,3.13c-3.94-7.11-3.91-14.25-.16-21.42Z" transform="translate(-275.29 -303.89)"/><path class="cls-28" d="M495.63,421c2.51.23,3.38,2.08,3.3,4.12-.1,2.88-1.74,4.49-4.86,4.13-2.49-.29-3.44-2.09-3.37-4.13C490.81,422.24,492.56,420.7,495.63,421Z" transform="translate(-275.29 -303.89)"/><path class="cls-29" d="M484,381.64c-1.76,2.73,4.45,6.7-1.07,8.56-2.83.94-4.32-1.47-4.76-4.2-.88-5.41,1.9-5.69,5.93-4.26Z" transform="translate(-275.29 -303.89)"/><path class="cls-28" d="M484.13,381.74c.43-4,1.66-6.8,6.2-3.71,2.62,1.78,4.39,5.21,1.87,7.11-3.3,2.5-4.81-3.55-8.17-3.5Z" transform="translate(-275.29 -303.89)"/><path class="cls-5" d="M483.8,426.32c-.74.69-1.62,2.2-2.61,2.29-2.69.22-3-2.08-2.65-3.93.19-1.09,1.45-2.73,2.36-2.82C483.6,421.59,483.5,423.91,483.8,426.32Z" transform="translate(-275.29 -303.89)"/><path class="cls-27" d="M408.81,354.64c5.81-3.58,11.51-6.52,15,2.71-2.43,1.75.09,7.83-5.78,6.56C412.53,363.26,403.19,366.4,408.81,354.64Z" transform="translate(-275.29 -303.89)"/><path class="cls-4" d="M418.2,376c-.71,2.54.13,7.95-3,6.73-5-1.93.59-6.42.06-9.86Z" transform="translate(-275.29 -303.89)"/><path class="cls-4" d="M418.05,363.91q2.9-3.27,5.78-6.56l.18,3.48q-1.62,4.38-3.23,8.76C418.44,368.38,418,366.26,418.05,363.91Z" transform="translate(-275.29 -303.89)"/><path class="cls-17" d="M575,384.29a37.48,37.48,0,0,1,5.87,2.36c-11.08,3.22-4.63,12.76-7,18.91-5.32-6-.49-14.67-5.51-20.73Z" transform="translate(-275.29 -303.89)"/><path class="cls-8" d="M556.29,394.48v15.91c-4.76-5.26-2.43-9.62-3.14-13.51Z" transform="translate(-275.29 -303.89)"/><path class="cls-13" d="M373,524.94c0-1.61,0-3.23,0-4.84,1.94-1.54,3.78-3.26,5.85-4.6,4.83-3.12,9.59-2.92,13.28,1.68a8.29,8.29,0,0,1-.1,11c-3.77,4.56-8.46,4.81-13.24,1.49C376.68,528.27,374.87,526.53,373,524.94Z" transform="translate(-275.29 -303.89)"/><path class="cls-13" d="M403,570.69l2.59-6.72c3.83-7.91,9.2-6.14,14.36-1.87,4.17,3.45,4.11,8.21.44,11.76C413.5,580.53,407.94,576.48,403,570.69Z" transform="translate(-275.29 -303.89)"/><path class="cls-20" d="M624.81,399.23l-24.9-11.57C610.35,387.16,618.82,391.15,624.81,399.23Z" transform="translate(-275.29 -303.89)"/><path class="cls-30" d="M431.54,367.51c5.55-.87,8.24.86,11.67,3.91C438,373.49,435.21,370.83,431.54,367.51Z" transform="translate(-275.29 -303.89)"/><path class="cls-15" d="M414.92,387.83c.87,2.18,1.95,3.58,1.61,4.37-.47,1.1-2,1.74-3.09,2.57-.38-.87-1.21-1.86-1-2.6C412.69,391,413.64,389.94,414.92,387.83Z" transform="translate(-275.29 -303.89)"/><path class="cls-7" d="M1664.83,612.21q0,42.09,0,84.16c0,4.71,1.21,11.08-4.88,12.15-8.44,1.48-17.23,6.53-25.56,2.31-5-2.54-.93-6.91,2.56-6.91,22,0,17.84-15.6,17.83-28.86,0-71-.08-142,.14-213,0-5.93-3-16.19,5.56-16.14,7.55,0,4,10,4.21,15.59.55,11.81.11,23.66.21,35.5.07,8.28,3.62,9.18,9.62,4.23,14.49-12,29-24.06,43.5-36,3.26-2.68,4.24-5.09,1.07-8.63-22.86-25.48-39.42-57.28-72.94-72.06-5-2.21-8.21-4.89-12.6,2-15.69,24.71-40.71,29.77-67.47,29-25.16-.69-47.55-8-61.26-31.36-2.91-5-6-2.38-8.67-.65-13.51,8.65-29.51,13.92-38.55,28.69-1.94,3.18-5.24,7.58-9.41,4.33-4.51-3.53.14-6.78,2.28-9.86,15-21.57,40.22-28.69,60.75-42.41,5.21-3.48,7.93,1.65,11,4.32,24,20.79,72,21.42,94.89.36,6.53-6,10.94-4.93,18.21-1.7,37.49,16.68,62.4,46.95,86.7,78.05,2.16,2.75,4.07,5.78,6.59,8.15,5.81,5.47,5.57,10.09-.65,15.15-18.34,14.92-36.14,30.52-54.91,44.85-6.38,4.87-8.51,9.51-8.38,17.19C1665.11,557.86,1664.83,585,1664.83,612.21Z" transform="translate(-275.29 -303.89)"/><path class="cls-4" d="M1485.39,573.84c0,38.1.19,76.19-.14,114.29-.07,8.57,1.17,12.37,11.43,14.22,31.79,5.73,63.67,4.18,95.58,4.65,4.06.06,11.28-3,11.24,4.49,0,6.5-6.82,5.42-11.44,5.47-35,.38-69.82-2.32-104.57-6.79-10.87-1.4-12.37-6.44-12.33-15.57.27-54.73-.05-109.47.34-164.2.06-7.87-2.47-12.24-8.65-17-18.68-14.43-36.53-29.95-54.79-44.94-5.41-4.43-6.6-8.65-1.33-14.2,5.12-5.39,9.58-11.38,14.45-17,1.68-1.93,3.86-4.42,6.59-2.38,2.31,1.74,1.91,4.72.77,7.25a21.51,21.51,0,0,1-2.2,3.24c-11.51,16.3-11.54,16.34,3.15,28.78,10.68,9.05,21.46,18,32.22,26.95,2,1.63,3.72,4.71,6.46,3.71,3.36-1.22,3.12-4.87,3.12-8,0-12.7-.22-25.4.12-38.09.13-4.78-2.44-13.07,4.38-13s5.53,8.44,5.55,13.83C1485.44,497.65,1485.39,535.75,1485.39,573.84Z" transform="translate(-275.29 -303.89)"/><path class="cls-23" d="M1619.9,512.65c0,10.05.18,20.11,0,30.15-.31,13.81-5.87,20.7-19.56,21.26-20.09.83-40.25.82-60.33,0-13.74-.56-19.49-7.41-19.67-21.15-.25-19.66-.28-39.33,0-59,.2-13.37,5.85-18.83,19.52-19q30.17-.37,60.35,0c14.15.17,19.42,5.75,19.69,20.18C1620,494.3,1619.9,503.48,1619.9,512.65Z" transform="translate(-275.29 -303.89)"/><path class="cls-16" d="M1622.51,710.59c-.3,2.52-1.77,3.92-4.23,3.68s-3.68-2-3.42-4.46,1.81-4,4.18-3.79S1622.57,708.15,1622.51,710.59Z" transform="translate(-275.29 -303.89)"/><path class="cls-6" d="M1513.32,374.8c37.79,25.21,75.55,24.89,113.24.31-1.14,17.42-23.55,31.28-52.39,31.92C1540.26,407.79,1515.77,394.82,1513.32,374.8Z" transform="translate(-275.29 -303.89)"/><path class="cls-5" d="M1612.51,529.11c-10.47-10.17-18.55-8.9-25.79-.26-3.27,3.91-6.23,3.61-9.65-.06a94.81,94.81,0,0,0-9.75-8.69c-18.13-14.71-18.18-14.72-34.63,2.64-1.1,1.15-1.15,3.3-1.68,5l-3.45-2.4c0-14.67.11-29.34,0-44-.08-8.07,4.63-10.79,11.63-10.83q30.8-.18,61.59,0c6.09,0,11.64,1.64,11.72,9.26C1612.62,495.24,1612.51,510.74,1612.51,529.11Z" transform="translate(-275.29 -303.89)"/><path class="cls-5" d="M1570.29,557.12c-9.61,0-19.22.09-28.82,0-4.67-.07-10.48,1.29-12.67-4.32s-2.57-11.91,1.13-17.54c.23-.36.57-.66.82-1,15.77-22.61,16.27-23,37.18-4.86,8.79,7.6,16.31,13.9,26.1,1.95,3.81-4.65,7.16-1.74,11.23.61,7.53,4.35,8.06,10.75,7.1,18-.71,5.36-4.41,7.14-9.31,7.15-10.92,0-21.84,0-32.76,0Z" transform="translate(-275.29 -303.89)"/><path class="cls-22" d="M1604.44,496.49c-.38,6.76-5.8,11.86-13.92,11.86-8.72,0-15-5.41-14.71-14.72s6.55-14.27,15.5-13.81C1599.69,480.26,1604.73,485.32,1604.44,496.49Z" transform="translate(-275.29 -303.89)"/><path class="cls-31" d="M1590.78,486c4.93.28,8,2.84,7.9,8s-3.12,7.86-8.28,7.68c-4.54-.15-7.16-2.71-7.33-7.27C1582.88,489.28,1585.4,486.36,1590.78,486Z" transform="translate(-275.29 -303.89)"/><path class="cls-7" d="M1433.78,588.35h-683c-9.68,0-17.52-3-17.52-6.59h0c0-3.64,7.84-6.59,17.52-6.59h683c9.67,0,17.51,3,17.51,6.59h0C1451.29,585.4,1443.45,588.35,1433.78,588.35Z" transform="translate(-275.29 -303.89)"/><path class="cls-7" d="M2387.73,588.36H1702.86c-9.7,0-17.57-3-17.57-6.61h0c0-3.65,7.87-6.6,17.57-6.6h684.87c9.7,0,17.56,3,17.56,6.6h0C2405.29,585.4,2397.43,588.36,2387.73,588.36Z" transform="translate(-275.29 -303.89)"/></svg>